/* XPM */
static char * XFACE[] = {
/* <Values> */
/* <width/cols> <height/rows> <colors> <char on pixel>*/
"48 4 2 1",
/* <Colors> */
"a c #ffffff",
"b c #000000",
/* <Pixels> */
"abaabaababaaabaabababaabaabaababaabaaababaabaaab",
"abaabaababaaabaabababaabaabaababaabaaababaabaaab",
"abaabaababaaabaabababaabaabaababaabaaababaabaaab",
"abaabaababaaabaabababaabaabaababaabaaababaabaaab"
};